<svg width="50px" height="50px" viewBox="0 0 512 512" fill="none" xmlns="http://www.w3.org/2000/svg">
<path d="M357.141 181.141L283.785 254.5L357.141 327.859C364.953 335.668 364.953 348.332 357.141 356.141C353.238 360.047 348.117 362 343 362C337.883 362 332.762 360.047 328.859 356.141L255.5 282.785L182.141 356.141C178.238 360.047 173.117 362 168 362C162.883 362 157.762 360.047 153.859 356.141C146.047 348.332 146.047 335.668 153.859 327.859L227.215 254.5L153.859 181.141C146.047 173.332 146.047 160.668 153.859 152.859C161.668 145.047 174.332 145.047 182.141 152.859L255.5 226.215L328.859 152.859C336.668 145.047 349.332 145.047 357.141 152.859C364.953 160.668 364.953 173.332 357.141 181.141ZM437.02 74.9805C388.668 26.6289 324.379 0 256 0C187.621 0 123.332 26.6289 74.9805 74.9805C26.6289 123.332 0 187.621 0 256C0 324.379 26.6289 388.668 74.9805 437.02C123.332 485.371 187.621 512 256 512C302.812 512 348.617 499.242 388.461 475.105C397.91 469.383 400.93 457.086 395.207 447.641C389.484 438.191 377.184 435.172 367.738 440.895C334.145 461.242 295.504 472 256 472C136.898 472 40 375.102 40 256C40 136.898 136.898 40 256 40C375.102 40 472 136.898 472 256C472 298.59 459.336 340.043 435.375 375.887C429.234 385.066 431.703 397.488 440.887 403.629C450.066 409.766 462.488 407.301 468.629 398.117C497 355.676 512 306.531 512 256C512 187.621 485.371 123.332 437.02 74.9805Z" fill="url(#paint0_linear)"/>
<defs>
<linearGradient id="paint0_linear" x1="0" y1="256" x2="512" y2="256" gradientUnits="userSpaceOnUse">
<stop stop-color="#E17373"/>
<stop offset="0.2557" stop-color="#FB867F" stop-opacity="0.77"/>
<stop offset="0.5295" stop-color="#FB7890" stop-opacity="0.6"/>
<stop offset="0.7844" stop-color="#FA748C" stop-opacity="0.47"/>
<stop offset="1" stop-color="#F86E6E" stop-opacity="0.94"/>
</linearGradient>
</defs>
</svg>
